<svg width="129" height="81" viewBox="0 0 129 81" fill="none" xmlns="http://www.w3.org/2000/svg">
<path d="M77.302 57.5932C77.302 61.465 74.0959 64.4568 70.3555 64.4568H69.643C67.8619 64.2808 58.4218 63.4009 56.2844 65.5128C53.9689 67.8007 55.0376 69.7366 55.2157 69.9125C55.75 70.9685 56.1063 72.0244 56.1063 73.2564C56.1063 77.1282 52.9002 80.12 49.1598 80.12C48.4473 80.12 47.7348 79.9441 47.2005 79.7681C47.2005 79.7681 42.9257 78.8881 39.1853 78.8881C35.4449 79.0641 31.8826 80.472 31.8826 80.472C30.992 80.824 30.1014 81 29.2108 81C25.8267 81 22.9768 78.5361 22.2643 75.1923V74.4883C22.0862 73.6084 21.5519 72.0244 19.5926 71.1445C16.9209 70.0885 13.0024 72.3764 11.2212 73.4324C10.865 73.6084 10.6869 73.7844 10.3306 73.9604C9.26193 74.4883 8.19324 74.8403 6.94643 74.8403C3.0279 74.8403 -6.10352e-05 71.6725 -6.10352e-05 67.9766C-6.10352e-05 64.1048 3.20601 61.113 6.94643 61.113C7.30267 61.113 7.6589 61.113 8.01513 61.289H8.37136C10.6869 61.641 21.9081 63.5769 23.8674 59.0011C25.8267 54.6013 14.9616 49.3216 12.1118 48.0896C11.9337 48.0896 11.7555 47.9136 11.5774 47.9136H11.3993C9.26193 46.6817 7.6589 44.3938 7.6589 41.7539C7.6589 37.8821 10.865 34.8903 14.6054 34.8903C17.8115 34.8903 20.4832 37.0022 21.3738 39.818C22.6206 42.4579 26.361 49.8495 29.9233 48.4416C33.6637 46.8577 27.964 35.7702 26.361 32.7784C26.1829 32.6024 26.1829 32.4264 26.0048 32.0744C25.6485 31.1945 25.4704 30.3145 25.4704 29.2586C25.4704 25.3867 28.4984 22.3949 32.4169 22.3949C36.3355 22.3949 39.3634 25.3867 39.3634 29.2586V29.6105C39.3634 29.9625 39.3634 30.4905 39.1853 30.8425C38.651 34.8903 37.5823 46.3297 41.3227 48.0896C45.5974 50.0255 49.516 38.9381 50.2284 36.6502V36.2982C51.2971 33.6583 53.7908 31.7224 56.8187 31.7224C60.7372 31.7224 63.7652 34.8903 63.7652 38.5861C63.7652 40.698 62.8746 42.6339 61.2716 43.8658H61.0935C60.7372 44.0418 60.5591 44.3938 60.2029 44.5698C57.5312 46.5057 50.4066 51.7854 52.0096 54.6013C53.7908 57.5932 63.409 53.1934 66.6151 51.7854C66.9713 51.6095 67.1494 51.4335 67.5056 51.2575C68.2181 50.9055 69.1087 50.7295 69.9992 50.7295C74.274 50.7295 77.302 53.8973 77.302 57.5932ZM122.721 51.7854C122.009 51.0815 121.296 50.7295 120.584 50.3775C120.228 50.2015 119.872 50.2015 119.515 50.0255C116.131 48.9696 106.335 45.0978 107.225 41.9299C108.116 38.7621 116.844 39.994 120.228 40.522C120.584 40.698 120.94 40.698 121.296 40.698H121.475C123.434 40.874 125.393 40.17 126.996 38.7621C129.668 36.1222 129.668 31.7224 126.996 29.0826C124.859 26.9707 121.653 26.4427 119.159 27.6746H118.981C118.981 27.6746 118.803 27.6746 118.803 27.8506C116.665 28.9066 105.8 34.0103 104.197 29.7865C102.772 25.7387 111.856 18.5231 115.062 16.0592C115.419 15.8832 115.775 15.5312 116.131 15.3552H116.309L116.487 15.1793C119.159 12.5394 119.159 8.1396 116.487 5.49973C113.816 2.85986 109.363 2.85986 106.691 5.49973C105.979 6.20369 105.444 7.08365 105.088 7.96361C105.088 8.1396 104.91 8.49158 104.91 8.66757C103.841 11.8354 99.9226 23.6268 96.1822 22.2189C92.6199 20.811 95.2916 12.8914 96.3603 10.2515C97.7852 7.61162 97.429 4.26779 95.1135 1.9799C92.4418 -0.659967 87.9889 -0.659967 85.3172 1.9799C83.3579 3.91581 82.8235 6.55568 83.536 8.84356V9.01955C83.536 9.19555 83.7141 9.37154 83.7141 9.54753C84.7828 12.5394 88.7013 23.6268 84.2485 25.3867C79.6175 27.1467 73.0272 18.1711 71.7804 16.2352C71.7804 16.0592 71.6023 16.0592 71.6023 15.8832C71.4242 15.5312 71.2461 15.3552 70.8898 15.0033C68.2181 12.3634 63.7652 12.3634 61.0935 15.0033C58.4217 17.6431 58.4217 22.0429 61.0935 24.6828C61.9841 25.5627 63.0528 26.0907 64.1214 26.4427C64.4777 26.6187 64.8339 26.6187 65.1901 26.6187C67.1494 27.1467 71.4242 28.2026 72.3147 30.6665C73.0272 32.6024 72.3147 34.1863 71.7804 34.8903L71.2461 35.4183C69.2868 38.0581 69.4649 41.9299 71.9585 44.2178C72.671 44.9218 73.3834 45.4498 74.274 45.6257C74.274 45.6257 78.0144 47.2097 80.6862 49.6735C83.3579 52.1374 85.6734 55.8332 85.6734 55.8332C86.0296 56.3612 86.3859 56.8892 86.9202 57.4172C89.5919 60.057 94.0448 60.057 96.7165 57.4172C97.6071 56.5372 98.1415 55.4813 98.4977 54.4253C98.4977 54.2493 99.2102 52.1374 102.416 52.1374C105.444 52.1374 111.5 59.5291 112.569 60.761C112.569 60.761 112.569 60.937 112.747 60.937C112.925 61.113 112.925 61.289 113.103 61.289C115.775 63.9288 120.228 63.9288 122.899 61.289C125.393 59.0011 125.393 54.6013 122.721 51.7854Z" fill="#FFCE1F"/>
</svg>
