<svg width="32" height="32" viewBox="0 0 32 32" fill="none" xmlns="http://www.w3.org/2000/svg">
<g clip-path="url(#clip0_1_582)">
<path d="M9.20256 11.5C9.20256 6.12696 12.9094 2.18383 17.7887 1.39502C17.2077 1.30108 16.61 1.25196 15.9999 1.2504C10.2673 1.26502 5.625 5.48715 5.625 11.5C5.625 18.9688 12.9591 24.5 12.9591 24.5H18.5625C18.5625 24.5 9.20256 18.5625 9.20256 11.5Z" fill="#CEE1F2"/>
<path d="M18.5 32H13.4375C12.895 32 12.4144 31.6501 12.2479 31.1338L11.6229 29.1963C11.4109 28.5393 11.7717 27.8348 12.4288 27.6229C13.0859 27.4107 13.7902 27.7717 14.0022 28.4288L14.3477 29.5001H17.5898L17.9354 28.4288C18.1474 27.7718 18.8516 27.4113 19.5088 27.6229C20.1658 27.8348 20.5266 28.5393 20.3147 29.1963L19.6897 31.1338C19.5231 31.6501 19.0425 32 18.5 32ZM19.7301 25.5009C19.8109 25.4406 21.729 23.9944 23.6553 21.5804C26.2523 18.3259 27.625 14.8401 27.625 11.5C27.625 8.28387 26.4064 5.34156 24.1937 3.21494C22.0563 1.16087 19.1696 0.021125 16.0569 0.0003125C16.0479 0.000125 16.0388 0 16.0298 0H15.9703C15.9612 0 15.9521 0.000125 15.9431 0.0003125C12.8304 0.021125 9.94369 1.16087 7.80631 3.215C5.59363 5.34156 4.375 8.28387 4.375 11.5C4.375 14.8383 5.73631 18.3227 8.31188 21.5766C10.2229 23.9909 12.1263 25.4376 12.2064 25.498C12.4233 25.6616 12.6874 25.75 12.9591 25.75H18.9813C19.2513 25.75 19.514 25.6626 19.7301 25.5009ZM6.875 11.5C6.875 6.37887 10.7956 2.51463 16 2.50006C21.2044 2.51463 25.125 6.37887 25.125 11.5C25.125 17.4047 19.8852 22.1351 18.5425 23.25H13.4009C12.0616 22.1281 6.875 17.4009 6.875 11.5Z" fill="#131A58"/>
<path d="M14.8739 18.8751C14.6187 18.8751 14.3611 18.7972 14.139 18.6354C13.581 18.2289 13.4581 17.4471 13.8646 16.8891L16.1056 13.8125H13.375C12.9067 13.8125 12.4778 13.5508 12.2636 13.1344C12.0492 12.7181 12.0857 12.2169 12.3579 11.8359L16.1079 6.58594C16.5092 6.02413 17.2899 5.894 17.8516 6.29537C18.4133 6.69662 18.5434 7.47731 18.1421 8.03906L15.804 11.3125H18.5625C19.0328 11.3125 19.4633 11.5765 19.6766 11.9957C19.8899 12.4149 19.8497 12.9183 19.5729 13.2985L15.8854 18.361C15.6407 18.6968 15.2599 18.8751 14.8739 18.8751ZM28.875 7.8125C28.875 8.67544 29.5746 9.375 30.4375 9.375C31.3004 9.375 32 8.67544 32 7.8125C32 6.94956 31.3004 6.25 30.4375 6.25C29.5746 6.25 28.875 6.94956 28.875 7.8125ZM28.6875 14.875C28.6875 15.7379 29.3871 16.4375 30.25 16.4375C31.1129 16.4375 31.8125 15.7379 31.8125 14.875C31.8125 14.0121 31.1129 13.3125 30.25 13.3125C29.3871 13.3125 28.6875 14.0121 28.6875 14.875ZM0 7.8125C0 8.67544 0.699562 9.375 1.5625 9.375C2.42544 9.375 3.125 8.67544 3.125 7.8125C3.125 6.94956 2.42544 6.25 1.5625 6.25C0.699562 6.25 0 6.94956 0 7.8125ZM0.25 14.875C0.25 15.7379 0.949562 16.4375 1.8125 16.4375C2.67544 16.4375 3.375 15.7379 3.375 14.875C3.375 14.0121 2.67544 13.3125 1.8125 13.3125C0.949562 13.3125 0.25 14.0121 0.25 14.875ZM3.125 1.5625C3.125 2.42544 3.82456 3.125 4.6875 3.125C5.55044 3.125 6.25 2.42544 6.25 1.5625C6.25 0.699562 5.55044 0 4.6875 0C3.82456 0 3.125 0.699562 3.125 1.5625ZM25.875 1.5625C25.875 2.42544 26.5746 3.125 27.4375 3.125C28.3004 3.125 29 2.42544 29 1.5625C29 0.699562 28.3004 0 27.4375 0C26.5746 0 25.875 0.699562 25.875 1.5625Z" fill="#1780FF"/>
</g>
<defs>
<clipPath id="clip0_1_582">
<rect width="32" height="32" fill="white"/>
</clipPath>
</defs>
</svg>
