<svg
            width="192"
            height="35"
            viewBox="0 0 192 35"
            fill="none"
            xmlns="http://www.w3.org/2000/svg"
          >
            <path
              d="M24.4361 22.2337C24.4361 23.4483 23.4387 24.3868 22.275 24.3868H22.0534C21.4993 24.3316 18.5625 24.0555 17.8975 24.718C17.1772 25.4358 17.5097 26.043 17.5651 26.0983C17.7313 26.4295 17.8421 26.7608 17.8421 27.1472C17.8421 28.3618 16.8447 29.3003 15.6811 29.3003C15.4594 29.3003 15.2378 29.2451 15.0716 29.1899C15.0716 29.1899 13.7417 28.9139 12.578 28.9139C11.4144 28.9691 10.3062 29.4108 10.3062 29.4108C10.0291 29.5212 9.75208 29.5764 9.47502 29.5764C8.4222 29.5764 7.53562 28.8035 7.31398 27.7545V27.5337C7.25857 27.2576 7.09234 26.7608 6.48281 26.4847C5.65164 26.1535 4.43259 26.8712 3.87848 27.2024C3.76766 27.2576 3.71225 27.3128 3.60143 27.368C3.26896 27.5337 2.93649 27.6441 2.54861 27.6441C1.32956 27.6441 0.387573 26.6503 0.387573 25.491C0.387573 24.2764 1.38498 23.3378 2.54861 23.3378C2.65943 23.3378 2.77026 23.3378 2.88108 23.393H2.9919C3.71225 23.5035 7.20316 24.1108 7.81268 22.6753C8.42221 21.2951 5.04212 19.6389 4.15554 19.2524C4.10013 19.2524 4.04472 19.1972 3.9893 19.1972H3.93389C3.26896 18.8108 2.77026 18.093 2.77026 17.2649C2.77026 16.0503 3.76766 15.1118 4.9313 15.1118C5.9287 15.1118 6.75987 15.7743 7.03692 16.6576C7.4248 17.4858 8.58844 19.8045 9.69666 19.3628C10.8603 18.866 9.08714 15.3878 8.58844 14.4493C8.53303 14.3941 8.53303 14.3389 8.47762 14.2285C8.36679 13.9524 8.31138 13.6764 8.31138 13.3451C8.31138 12.1305 9.25337 11.192 10.4724 11.192C11.6915 11.192 12.6335 12.1305 12.6335 13.3451V13.4555C12.6335 13.566 12.6335 13.7316 12.578 13.842C12.4118 15.1118 12.0793 18.7003 13.243 19.2524C14.5729 19.8597 15.7919 16.3816 16.0135 15.6639V15.5535C16.346 14.7253 17.1218 14.118 18.0638 14.118C19.2828 14.118 20.2248 15.1118 20.2248 16.2712C20.2248 16.9337 19.9477 17.541 19.449 17.9274H19.3936C19.2828 17.9826 19.2274 18.093 19.1166 18.1483C18.2854 18.7555 16.069 20.4118 16.5677 21.2951C17.1218 22.2337 20.114 20.8535 21.1114 20.4118C21.2222 20.3566 21.2776 20.3014 21.3884 20.2462C21.6101 20.1358 21.8871 20.0805 22.1642 20.0805C23.4941 20.0805 24.4361 21.0743 24.4361 22.2337ZM38.5659 20.4118C38.3443 20.191 38.1226 20.0805 37.901 19.9701C37.7902 19.9149 37.6794 19.9149 37.5685 19.8597C36.5157 19.5285 33.4681 18.3139 33.7451 17.3201C34.0222 16.3264 36.7374 16.7128 37.7902 16.8785C37.901 16.9337 38.0118 16.9337 38.1226 16.9337H38.1781C38.7876 16.9889 39.3971 16.768 39.8958 16.3264C40.727 15.4983 40.727 14.118 39.8958 13.2899C39.2309 12.6274 38.2335 12.4618 37.4577 12.8483H37.4023C37.4023 12.8483 37.3469 12.8483 37.3469 12.9035C36.6819 13.2347 33.3019 14.8358 32.8032 13.5108C32.3599 12.241 35.1858 9.97742 36.1832 9.20451C36.2941 9.1493 36.4049 9.03888 36.5157 8.98367H36.5711L36.6265 8.92847C37.4577 8.10034 37.4577 6.72013 36.6265 5.89201C35.7954 5.06388 34.4101 5.06388 33.5789 5.89201C33.3573 6.11284 33.191 6.38888 33.0802 6.66492C33.0802 6.72013 33.0248 6.83055 33.0248 6.88576C32.6923 7.87951 31.4733 11.5785 30.3097 11.1368C29.2014 10.6951 30.0326 8.21076 30.3651 7.38263C30.8084 6.55451 30.6975 5.50555 29.9772 4.78784C29.146 3.95972 27.7607 3.95972 26.9296 4.78784C26.32 5.39513 26.1538 6.22326 26.3755 6.94097V6.99617C26.3755 7.05138 26.4309 7.10659 26.4309 7.1618C26.7633 8.10034 27.9824 11.5785 26.5971 12.1305C25.1564 12.6826 23.1062 9.86701 22.7183 9.25972C22.7183 9.20451 22.6629 9.20451 22.6629 9.1493C22.6075 9.03888 22.5521 8.98367 22.4413 8.87326C21.6101 8.04513 20.2248 8.04513 19.3936 8.87326C18.5625 9.70138 18.5625 11.0816 19.3936 11.9097C19.6707 12.1858 20.0032 12.3514 20.3356 12.4618C20.4464 12.517 20.5573 12.517 20.6681 12.517C21.2776 12.6826 22.6075 13.0139 22.8845 13.7868C23.1062 14.3941 22.8845 14.891 22.7183 15.1118L22.5521 15.2774C21.9426 16.1055 21.998 17.3201 22.7737 18.0378C22.9954 18.2587 23.217 18.4243 23.4941 18.4795C23.4941 18.4795 24.6577 18.9764 25.4889 19.7493C26.32 20.5222 27.0404 21.6816 27.0404 21.6816C27.1512 21.8472 27.262 22.0128 27.4283 22.1785C28.2594 23.0066 29.6447 23.0066 30.4759 22.1785C30.7529 21.9024 30.9192 21.5712 31.03 21.2399C31.03 21.1847 31.2516 20.5222 32.249 20.5222C33.191 20.5222 35.075 22.841 35.4075 23.2274C35.4075 23.2274 35.4075 23.2826 35.4629 23.2826C35.5183 23.3378 35.5183 23.393 35.5737 23.393C36.4049 24.2212 37.7902 24.2212 38.6213 23.393C39.3971 22.6753 39.3971 21.2951 38.5659 20.4118Z"
              fill="#FFCE1F"
            />
            <path
              d="M59.6779 17.1822V19.501C59.6779 21.8197 57.9047 23.5312 54.8017 23.5312C51.6433 23.5312 49.8701 21.8197 49.8701 19.0593V15.3051C49.8701 12.5447 51.6433 10.8333 54.8017 10.8333C57.3506 10.8333 58.8467 11.827 59.4563 13.7041C59.6225 14.0905 59.5117 14.3114 59.0684 14.477L58.1264 14.8082C57.7385 14.9739 57.5169 14.8635 57.406 14.4218C57.0182 13.3728 56.187 12.8208 54.8017 12.8208C53.0286 12.8208 52.0312 13.7041 52.0312 15.2499V19.0593C52.0312 20.6603 53.0286 21.4885 54.8017 21.4885C56.5749 21.4885 57.5723 20.6051 57.5723 19.4458V18.6176H54.968C54.5247 18.6176 54.3584 18.452 54.3584 18.0103V17.1822C54.3584 16.7405 54.5247 16.5749 54.968 16.5749H59.0684C59.5671 16.6301 59.6779 16.7405 59.6779 17.1822ZM69.5965 11.7166V12.5447C69.5965 12.9864 69.4303 13.152 68.987 13.152H63.7229V16.1333H68.1558C68.5991 16.1333 68.7654 16.2989 68.7654 16.7405V17.5135C68.7654 17.9551 68.5991 18.1207 68.1558 18.1207H63.7229V21.2676H69.1532C69.5965 21.2676 69.7628 21.4333 69.7628 21.8749V22.703C69.7628 23.1447 69.6519 23.3103 69.1532 23.3103H62.1714C61.7281 23.3103 61.5619 23.1447 61.5619 22.703V11.7166C61.5619 11.2749 61.7281 11.1093 62.1714 11.1093H68.987C69.4303 11.1093 69.5965 11.2749 69.5965 11.7166ZM76.0242 10.8885C78.5731 10.8885 80.0692 11.8822 80.6788 13.7593C80.845 14.1458 80.7342 14.3666 80.2909 14.5322L79.3489 14.8635C78.961 14.9739 78.7394 14.9187 78.6286 14.477C78.2407 13.428 77.4095 12.876 76.0242 12.876C74.2511 12.876 73.2537 13.7593 73.2537 15.3051V19.1145C73.2537 20.7155 74.2511 21.5437 76.0242 21.5437C77.4649 21.5437 78.2961 20.9916 78.6286 19.9426C78.7948 19.501 78.961 19.4457 79.4043 19.5562L80.3463 19.8874C80.7342 20.053 80.845 20.2187 80.7342 20.6603C80.0692 22.4822 78.5731 23.5312 76.0242 23.5312C72.8658 23.5312 71.0926 21.8197 71.0926 19.0593V15.3051C71.0926 12.5999 72.8658 10.8885 76.0242 10.8885ZM91.4286 23.2551H90.4311C89.7108 23.2551 89.4892 23.1447 89.2675 22.7582L87.5498 19.2801C87.1065 18.3416 86.6632 18.0655 85.4996 18.0655H84.613V22.6478C84.613 23.0895 84.4467 23.2551 84.0034 23.2551H83.006C82.5628 23.2551 82.3965 23.0895 82.3965 22.6478V11.7166C82.3965 11.2749 82.5628 11.1093 83.006 11.1093H84.0034C84.4467 11.1093 84.613 11.2749 84.613 11.7166V16.1333H85.4996L88.935 11.6062C89.2675 11.2197 89.4338 11.1093 90.0987 11.1093H91.2069C91.5948 11.1093 91.7056 11.3853 91.484 11.6614L87.6606 16.5197C88.4918 16.9062 88.9905 17.5135 89.4892 18.452L91.6502 22.6478C91.8718 23.0343 91.8164 23.2551 91.4286 23.2551ZM97.413 10.8885C100.571 10.8885 102.289 12.5999 102.289 15.3603V19.1145C102.289 21.8749 100.516 23.5864 97.413 23.5864C94.2545 23.5864 92.4814 21.8749 92.4814 19.1145V15.3051C92.4814 12.5999 94.2545 10.8885 97.413 10.8885ZM97.413 12.876C95.6398 12.876 94.6424 13.7593 94.6424 15.3051V19.0593C94.6424 20.6603 95.6398 21.4885 97.413 21.4885C99.1861 21.4885 100.184 20.6051 100.184 19.0593V15.3051C100.184 13.7041 99.1861 12.876 97.413 12.876Z"
              fill="white"
            />
            <path
              d="M117.527 15.5812V18.6728C117.527 21.4885 115.754 23.1999 112.54 23.1999H108.717C108.274 23.1999 108.108 23.0343 108.108 22.5926V11.6614C108.108 11.2197 108.274 11.0541 108.717 11.0541H112.54C115.754 11.0541 117.527 12.7655 117.527 15.5812ZM112.596 13.0416H110.269V21.2124H112.596C114.424 21.2124 115.422 20.3291 115.422 18.728V15.5812C115.366 13.9249 114.369 13.0416 112.596 13.0416ZM128.554 11.6614L124.343 18.452V22.6478C124.343 23.0895 124.177 23.2551 123.734 23.2551H122.736C122.293 23.2551 122.127 23.0895 122.127 22.6478V18.3968L117.915 11.6614C117.749 11.3301 117.805 11.0541 118.248 11.0541H119.467C120.132 11.0541 120.353 11.0541 120.575 11.551L123.235 16.1885L125.895 11.551C126.172 11.0541 126.338 11.0541 127.058 11.0541H128.166C128.665 11.0541 128.721 11.3301 128.554 11.6614ZM139.581 11.6614V22.6478C139.581 23.0895 139.47 23.2551 138.972 23.2551H137.974C137.697 23.2551 137.531 23.1999 137.42 22.9791L133.209 16.7958C132.378 15.5812 131.879 14.0353 131.824 13.9249H131.713C131.713 14.0353 132.101 15.6916 132.101 17.3478V22.703C132.101 23.1447 131.934 23.3103 131.491 23.3103H130.605C130.161 23.3103 129.995 23.1447 129.995 22.703V11.6614C129.995 11.2197 130.161 11.0541 130.605 11.0541H131.602C131.934 11.0541 132.045 11.1645 132.156 11.3301L136.312 17.5135C137.198 18.8385 137.642 20.2739 137.753 20.4395H137.863C137.863 20.2739 137.476 18.728 137.476 16.9614V11.6614C137.476 11.2197 137.642 11.0541 138.085 11.0541H138.972C139.415 11.0541 139.581 11.2197 139.581 11.6614ZM151.495 23.1999H150.608C149.888 23.1999 149.666 23.0895 149.555 22.703L148.779 20.4947H144.014L143.183 22.703C143.072 23.0895 142.85 23.1999 142.13 23.1999H141.299C140.856 23.1999 140.745 23.0343 140.911 22.6478L145.233 11.4958C145.399 11.1093 145.566 10.9989 145.953 10.9989H146.84C147.228 10.9989 147.45 11.1093 147.56 11.4405L151.882 22.5926C151.993 23.0343 151.882 23.1999 151.495 23.1999ZM146.397 13.0416H146.286C146.286 13.0416 146.286 14.0905 145.898 15.1395L144.568 18.7833H148.114L146.785 15.1947C146.452 14.0353 146.452 13.0416 146.397 13.0416ZM164.793 11.6614V22.6478C164.793 23.0895 164.682 23.2551 164.184 23.2551H163.297C162.854 23.2551 162.688 23.0895 162.688 22.6478V17.403C162.688 16.4093 162.798 15.3051 163.076 13.9801H162.965C162.521 15.2499 162.134 16.1333 161.579 17.127L159.917 20.1083C159.751 20.4395 159.585 20.4947 159.252 20.4947H158.698C158.31 20.4947 158.199 20.4395 158.033 20.1083L156.315 17.127C155.706 16.1333 155.429 15.3603 154.985 14.0353H154.875C155.152 15.3603 155.263 16.3541 155.263 17.4583V22.6478C155.263 23.0895 155.152 23.2551 154.653 23.2551H153.822C153.379 23.2551 153.212 23.0895 153.212 22.6478V11.6614C153.212 11.2197 153.379 11.0541 153.822 11.0541H154.598C155.096 11.0541 155.207 11.1645 155.429 11.4958L158.975 17.8447L162.521 11.4958C162.743 11.1093 162.854 11.0541 163.297 11.0541H164.128C164.627 11.0541 164.793 11.2197 164.793 11.6614ZM167.785 11.0541H168.783C169.226 11.0541 169.392 11.2197 169.392 11.6614V22.6478C169.392 23.0895 169.226 23.2551 168.783 23.2551H167.785C167.342 23.2551 167.176 23.0895 167.176 22.6478V11.6614C167.176 11.2197 167.342 11.0541 167.785 11.0541ZM176.263 10.8333C178.812 10.8333 180.308 11.827 180.918 13.7041C181.084 14.0905 180.973 14.3114 180.53 14.477L179.588 14.8083C179.2 14.9187 178.979 14.8635 178.868 14.4218C178.48 13.3728 177.649 12.8208 176.263 12.8208C174.49 12.8208 173.493 13.7041 173.493 15.2499V19.0593C173.493 20.6603 174.49 21.4885 176.263 21.4885C177.704 21.4885 178.535 20.9364 178.868 19.8874C179.034 19.4458 179.2 19.3905 179.643 19.501L180.585 19.8322C180.973 19.9978 181.084 20.1635 180.973 20.6051C180.308 22.427 178.812 23.476 176.263 23.476C173.105 23.476 171.332 21.7645 171.332 19.0041V15.2499C171.387 12.5447 173.105 10.8333 176.263 10.8333ZM186.958 10.8333C189.396 10.8333 190.67 11.7166 191.501 13.428C191.668 13.8145 191.612 14.0353 191.169 14.201L190.227 14.5874C189.839 14.753 189.673 14.6978 189.507 14.3114C189.063 13.428 188.343 12.876 187.013 12.876C185.351 12.876 184.52 13.3728 184.52 14.477C184.52 15.6916 185.905 15.9124 187.512 16.078C189.562 16.2989 191.889 16.7958 191.889 19.6666C191.889 21.9301 190.172 23.476 187.013 23.476C184.353 23.476 182.968 22.4822 182.303 20.6051C182.137 20.1635 182.248 19.9978 182.691 19.8322L183.633 19.501C184.021 19.3905 184.187 19.4458 184.353 19.8874C184.797 20.8812 185.683 21.4885 187.013 21.4885C188.786 21.4885 189.728 20.9364 189.728 19.7218C189.728 18.5624 188.454 18.2864 187.013 18.1208C184.908 17.8999 182.359 17.5687 182.359 14.5874C182.248 12.3791 183.855 10.8333 186.958 10.8333Z"
              fill="#FFCE1F"
            />
          </svg>