<svg width="32" height="32" viewBox="0 0 32 32" fill="none" xmlns="http://www.w3.org/2000/svg">
<path d="M5.07536 13.1774C5.07536 7.20529 9.46426 2.25825 15.1926 1.38573C14.6021 1.29574 13.9972 1.24902 13.3815 1.24902C6.79367 1.24902 1.45312 6.58957 1.45312 13.1774C1.45312 19.7653 6.79367 25.1058 13.3815 25.1058C13.9972 25.1058 14.6021 25.0591 15.1926 24.9691C9.46426 24.0965 5.07536 19.1495 5.07536 13.1774Z" fill="#CEE1F2"/>
<path d="M13.1892 26.3549C5.92308 26.3549 0.0117188 20.4435 0.0117188 13.1774C0.0117188 5.91136 5.92308 0 13.1892 0C20.4552 0 26.3666 5.91136 26.3666 13.1774C26.3666 20.4435 20.4552 26.3549 13.1892 26.3549ZM13.1892 2.49809C7.30053 2.49809 2.50981 7.28881 2.50981 13.1774C2.50981 19.0661 7.30053 23.8568 13.1892 23.8568C19.0778 23.8568 23.8685 19.0661 23.8685 13.1774C23.8685 7.28881 19.0777 2.49809 13.1892 2.49809Z" fill="#131A58"/>
<path d="M31.6191 31.6341C31.3752 31.878 31.0556 32 30.7359 32C30.4162 32 30.0966 31.878 29.8527 31.6341L24.2632 26.0446C23.7754 25.5568 23.7754 24.766 24.2632 24.2782C24.751 23.7905 25.5419 23.7904 26.0296 24.2782L31.6191 29.8677C32.1068 30.3555 32.1068 31.1464 31.6191 31.6341Z" fill="#1780FF"/>
</svg>
