<svg width="24" height="24" viewBox="0 0 24 24" fill="none" xmlns="http://www.w3.org/2000/svg">
<path d="M12 22C12 22 4 17.5 4 10.2C3.97331 9.13272 4.16052 8.07088 4.55059 7.07708C4.94066 6.08327 5.5257 5.17759 6.27124 4.41341C7.01679 3.64923 7.90775 3.042 8.89162 2.62752C9.8755 2.21303 10.9324 1.99967 12 2C13.0676 1.99967 14.1245 2.21303 15.1084 2.62752C16.0923 3.042 16.9832 3.64923 17.7288 4.41341C18.4743 5.17759 19.0593 6.08327 19.4494 7.07708C19.8395 8.07088 20.0267 9.13272 20 10.2C20 17.5 12 22 12 22Z" stroke="#596573" stroke-width="2" stroke-linecap="round" stroke-linejoin="round"/>
<path d="M12 13C13.6569 13 15 11.6569 15 10C15 8.34315 13.6569 7 12 7C10.3431 7 9 8.34315 9 10C9 11.6569 10.3431 13 12 13Z" stroke="#596573" stroke-width="2" stroke-linecap="round" stroke-linejoin="round"/>
</svg>
