<svg width="32" height="32" viewBox="0 0 32 32" fill="none" xmlns="http://www.w3.org/2000/svg">
<path d="M5 24.5V7.5C5 4.04819 7.79819 1.25 11.25 1.25L24.4969 1.20131L24.5 1.1875L7.5 1.25C4.04819 1.25 1.25 4.04819 1.25 7.5V24.5C1.25 27.9517 4.04819 30.75 7.5 30.75L10.7536 30.7304C7.53394 30.4774 5 27.7847 5 24.5Z" fill="#CEE1F2"/>
<path d="M24.5 32H7.5C3.3645 32 0 28.6355 0 24.5V7.5C0 3.3645 3.3645 0 7.5 0H24.5C28.6355 0 32 3.3645 32 7.5V24.5C32 28.6355 28.6355 32 24.5 32ZM7.5 2.5C4.743 2.5 2.5 4.743 2.5 7.5V24.5C2.5 27.257 4.743 29.5 7.5 29.5H24.5C27.257 29.5 29.5 27.257 29.5 24.5V7.5C29.5 4.743 27.257 2.5 24.5 2.5H7.5ZM27 8.0625C27 7.37213 26.4404 6.8125 25.75 6.8125H6.25C5.55963 6.8125 5 7.37213 5 8.0625C5 8.75288 5.55963 9.3125 6.25 9.3125H25.75C26.4404 9.3125 27 8.75288 27 8.0625ZM27.0625 19.75C27.0625 19.0596 26.5029 18.5 25.8125 18.5H18.5C17.8096 18.5 17.25 19.0596 17.25 19.75C17.25 20.4404 17.8096 21 18.5 21H25.8125C26.5029 21 27.0625 20.4404 27.0625 19.75ZM14.8125 19.75C14.8125 19.0596 14.2529 18.5 13.5625 18.5H6.25C5.55963 18.5 5 19.0596 5 19.75C5 20.4404 5.55963 21 6.25 21H13.5625C14.2529 21 14.8125 20.4404 14.8125 19.75ZM14.8125 24.75C14.8125 24.0596 14.2529 23.5 13.5625 23.5H6.25C5.55963 23.5 5 24.0596 5 24.75C5 25.4404 5.55963 26 6.25 26H13.5625C14.2529 26 14.8125 25.4404 14.8125 24.75ZM24.5 24.75C24.5 24.0596 23.9404 23.5 23.25 23.5H18.5C17.8096 23.5 17.25 24.0596 17.25 24.75C17.25 25.4404 17.8096 26 18.5 26H23.25C23.9404 26 24.5 25.4404 24.5 24.75Z" fill="#131A58"/>
<path d="M25.8125 16H11.8125C11.1221 16 10.5625 15.4404 10.5625 14.75C10.5625 14.0596 11.1221 13.5 11.8125 13.5H25.8125C26.5029 13.5 27.0625 14.0596 27.0625 14.75C27.0625 15.4404 26.5029 16 25.8125 16ZM5 14.625C5 15.4879 5.69956 16.1875 6.5625 16.1875C7.42544 16.1875 8.125 15.4879 8.125 14.625C8.125 13.7621 7.42544 13.0625 6.5625 13.0625C5.69956 13.0625 5 13.7621 5 14.625Z" fill="#1780FF"/>
</svg>
