<svg width="24" height="24" viewBox="0 0 24 24" fill="none" xmlns="http://www.w3.org/2000/svg">
<path d="M21.71 15.5799L17.19 11.0699C17.2846 10.6093 17.3315 10.1401 17.33 9.66988C17.3297 8.38054 17.0043 7.11208 16.3839 5.98177C15.7636 4.85145 14.8683 3.89576 13.7809 3.20303C12.6935 2.51029 11.4489 2.10287 10.1623 2.01842C8.87577 1.93398 7.58866 2.17523 6.42 2.71988C6.27194 2.78752 6.14262 2.89028 6.04329 3.01924C5.94396 3.1482 5.8776 3.29946 5.85 3.45988C5.8225 3.61827 5.83359 3.78095 5.88233 3.93414C5.93108 4.08733 6.01603 4.22651 6.13 4.33988L10.48 8.67988L8.68 10.4799L4.34 6.12988C4.22567 6.01769 4.08605 5.9346 3.93291 5.88761C3.77977 5.84062 3.61758 5.83112 3.46 5.85988C3.30058 5.88648 3.14998 5.95132 3.02111 6.04885C2.89223 6.14638 2.78891 6.27369 2.72 6.41988C2.17352 7.59239 1.93248 8.88406 2.01929 10.1747C2.1061 11.4654 2.51795 12.7132 3.21651 13.802C3.91508 14.8907 4.87767 15.7851 6.01474 16.4019C7.15181 17.0188 8.42642 17.338 9.72 17.3299C10.1902 17.3314 10.6594 17.2845 11.12 17.1899L15.63 21.7099C15.723 21.8036 15.8336 21.878 15.9554 21.9288C16.0773 21.9795 16.208 22.0057 16.34 22.0057C16.472 22.0057 16.6027 21.9795 16.7246 21.9288C16.8464 21.878 16.957 21.8036 17.05 21.7099C17.1437 21.6169 17.2181 21.5063 17.2689 21.3845C17.3197 21.2626 17.3458 21.1319 17.3458 20.9999C17.3458 20.8679 17.3197 20.7372 17.2689 20.6153C17.2181 20.4934 17.1437 20.3828 17.05 20.2899L12.15 15.3899C12.0275 15.2682 11.8757 15.1804 11.7092 15.1348C11.5428 15.0893 11.3673 15.0876 11.2 15.1299C10.7172 15.2592 10.2198 15.3264 9.72 15.3299C8.97205 15.3365 8.23018 15.195 7.53714 14.9137C6.8441 14.6323 6.21357 14.2166 5.68189 13.6905C5.15021 13.1644 4.72787 12.5383 4.43922 11.8482C4.15056 11.1582 4.00129 10.4179 4 9.66988C3.9987 9.3349 4.02546 9.0004 4.08 8.66988L8 12.5999C8.09296 12.6936 8.20356 12.768 8.32542 12.8188C8.44728 12.8695 8.57799 12.8957 8.71 12.8957C8.84201 12.8957 8.97272 12.8695 9.09458 12.8188C9.21643 12.768 9.32704 12.6936 9.42 12.5999L12.6 9.38988C12.7802 9.20342 12.881 8.95422 12.881 8.69488C12.881 8.43554 12.7802 8.18635 12.6 7.99988L8.71 4.07988C9.04058 4.0259 9.37504 3.99914 9.71 3.99988C11.212 4.00253 12.6517 4.60108 13.7128 5.66412C14.774 6.72716 15.37 8.16784 15.37 9.66988C15.3665 10.1697 15.2993 10.6671 15.17 11.1499C15.1277 11.3172 15.1294 11.4926 15.1749 11.6591C15.2205 11.8256 15.3084 11.9774 15.43 12.0999L20.33 16.9999C20.5183 17.1882 20.7737 17.294 21.04 17.294C21.3063 17.294 21.5617 17.1882 21.75 16.9999C21.9383 16.8116 22.0441 16.5562 22.0441 16.2899C22.0441 16.0236 21.9383 15.7682 21.75 15.5799H21.71Z" fill="#131A58"/>
</svg>
